<?xml version="1.0" encoding="UTF-8"?>
<svg version="1.1" xmlns="http://www.w3.org/2000/svg" width="1042" height="1043">
<path d="M0 0 C5.75478515 3.88864224 10.2316993 9.30845076 14.375 14.8125 C15.20680786 15.91392334 15.20680786 15.91392334 16.05541992 17.03759766 C41.38288301 51.36819661 52.02502012 95.31994479 45.875 137.5 C40.89964895 167.48616351 26.78708867 198.24977127 3 218 C-1.41091249 220.17163023 -4.19152997 220.20211751 -9 219 C-11.875 217.5 -11.875 217.5 -14 215 C-15.26237426 210.83104797 -15.71571184 207.47745016 -13.78515625 203.4921875 C-11.88053511 200.8332197 -9.83593553 198.78384398 -7.4375 196.5625 C7.99481786 181.30962769 16.86601269 161.88254753 22 141 C22.23332031 140.08734375 22.46664062 139.1746875 22.70703125 138.234375 C30.23009788 103.81228595 20.74615487 67.64483964 3 38 C0.26210574 33.79358871 -2.82069723 29.88011683 -6 26 C-7.50062027 24.12549638 -9.00065079 22.25052045 -10.5 20.375 C-11.1496875 19.57835937 -11.799375 18.78171875 -12.46875 17.9609375 C-15.34909643 14.27233059 -15.31566556 11.65606705 -15 7 C-13.76043745 4.21098427 -12.71549246 2.55649413 -10.3125 0.6875 C-6.73592683 -0.37580554 -3.62848738 -0.86246162 0 0 Z " fill="#ED2946" transform="translate(633,395)"/>
<path d="M0 0 C3.04450875 2.23019436 4.15286402 4.01744594 5.18359375 7.625 C5.18359375 13.82103578 2.64260302 17.02492851 -1.37890625 21.5625 C-25.81505322 50.04024888 -37.36706981 87.40651917 -34.63037109 124.65722656 C-31.86469547 153.21522126 -20.14269818 179.03170668 0.8984375 198.65234375 C4.22068609 202.2471871 5.20812588 204.7512009 5.12109375 209.625 C3.97478163 213.90456526 2.73537601 215.49976963 -0.81640625 218.125 C-4.72536076 219.2621504 -6.85997138 219.5109992 -10.65234375 217.98046875 C-14.24642731 215.87282716 -17.09592725 213.38105605 -20.00390625 210.4375 C-20.56489014 209.8700708 -21.12587402 209.3026416 -21.70385742 208.71801758 C-50.50788299 178.67808181 -57.78622252 139.15719702 -56.94824219 99.09326172 C-56.69714061 91.53510422 -55.67214686 84.44206421 -53.81640625 77.125 C-53.62304688 76.3191748 -53.4296875 75.51334961 -53.23046875 74.68310547 C-47.08482357 49.49828946 -33.52905091 16.07942009 -12.00390625 -0.25 C-7.86341968 -1.43299616 -3.92695543 -1.89169466 0 0 Z " fill="#F1594D" transform="translate(418.81640625,395.875)"/>
<path d="M0 0 C0.85743587 -0.00538554 1.71487173 -0.01077108 2.5982905 -0.01631981 C5.47644394 -0.03064732 8.35414056 -0.02348387 11.23231506 -0.01637268 C13.29373546 -0.02207374 15.3551527 -0.02903697 17.41656494 -0.03717041 C23.01983623 -0.05514609 28.62295129 -0.05392514 34.22624278 -0.04822803 C38.90088616 -0.04514255 43.57549926 -0.05122148 48.25013834 -0.05726677 C59.27644932 -0.07132488 70.30268285 -0.06974001 81.32899475 -0.05836487 C92.71139765 -0.04688199 104.09356498 -0.06095936 115.47593683 -0.08776134 C125.24248604 -0.10989912 135.00896121 -0.11656006 144.77553374 -0.11068493 C150.61130732 -0.1073096 156.44692988 -0.10976867 162.28268242 -0.12693596 C167.76975865 -0.14237234 173.25648519 -0.13848619 178.74354744 -0.11963081 C180.75875912 -0.11593578 182.77399652 -0.1190799 184.78918457 -0.1295166 C187.5376784 -0.14266562 190.2850042 -0.13123325 193.03344727 -0.11352539 C193.83325372 -0.1231304 194.63306018 -0.1327354 195.45710319 -0.14263147 C199.19015718 -0.09305474 201.35309795 0.24233075 204.52845097 2.27447414 C206.85465344 4.67033627 207.82340894 6.13341205 208.58021545 9.38768005 C208.50580705 13.55455092 208.08228485 15.72183152 205.56011963 19.06674767 C201.71384232 22.06246466 198.64385726 22.08728301 193.96424866 22.02259827 C193.09779126 22.03039822 192.23133387 22.03819817 191.33862019 22.04623449 C188.43564633 22.06617615 185.53398025 22.0503815 182.6309967 22.03465271 C180.5497206 22.04142786 178.4684505 22.05033041 176.38719177 22.061203 C170.7342906 22.08401493 165.08184524 22.07515196 159.428936 22.05930758 C153.51621512 22.04665852 147.60353355 22.05838593 141.69081116 22.0662384 C131.76097092 22.07533783 121.83131655 22.06333923 111.90150452 22.03953552 C100.41733944 22.01232384 88.93361817 22.02113778 77.44946384 22.04866755 C67.59370147 22.07134913 57.73807279 22.07456331 47.88229275 22.0614742 C41.99397951 22.05367452 36.10587495 22.05265249 30.21757507 22.06915665 C24.68196945 22.08358814 19.14693664 22.07360331 13.61139297 22.04468536 C11.5784513 22.03806756 9.54546151 22.03998402 7.51253891 22.05099869 C4.73976678 22.06463816 1.9688366 22.04755803 -0.80381775 22.02259827 C-1.61072398 22.03375188 -2.41763021 22.04490548 -3.24898815 22.05639708 C-7.27357379 21.98599338 -9.18615623 21.57018963 -12.39578247 19.06284142 C-14.95040483 15.6863493 -15.41978455 13.60982504 -15.41978455 9.38768005 C-12.42225244 1.18390796 -8.26491986 -0.06193297 0 0 Z " fill="#EE3248" transform="translate(423.41978454589844,469.61231994628906)"/>
<path d="M0 0 C0.85743587 -0.00538554 1.71487173 -0.01077108 2.5982905 -0.01631981 C5.47644394 -0.03064732 8.35414056 -0.02348387 11.23231506 -0.01637268 C13.29373546 -0.02207374 15.3551527 -0.02903697 17.41656494 -0.03717041 C23.01983623 -0.05514609 28.62295129 -0.05392514 34.22624278 -0.04822803 C38.90088616 -0.04514255 43.57549926 -0.05122148 48.25013834 -0.05726677 C59.27644932 -0.07132488 70.30268285 -0.06974001 81.32899475 -0.05836487 C92.71139765 -0.04688199 104.09356498 -0.06095936 115.47593683 -0.08776134 C125.24248604 -0.10989912 135.00896121 -0.11656006 144.77553374 -0.11068493 C150.61130732 -0.1073096 156.44692988 -0.10976867 162.28268242 -0.12693596 C167.76975865 -0.14237234 173.25648519 -0.13848619 178.74354744 -0.11963081 C180.75875912 -0.11593578 182.77399652 -0.1190799 184.78918457 -0.1295166 C187.5376784 -0.14266562 190.2850042 -0.13123325 193.03344727 -0.11352539 C193.83325372 -0.1231304 194.63306018 -0.1327354 195.45710319 -0.14263147 C199.19015718 -0.09305474 201.35309795 0.24233075 204.52845097 2.27447414 C206.85465344 4.67033627 207.82340894 6.13341205 208.58021545 9.38768005 C208.50580705 13.55455092 208.08228485 15.72183152 205.56011963 19.06674767 C201.71384232 22.06246466 198.64385726 22.08728301 193.96424866 22.02259827 C193.09779126 22.03039822 192.23133387 22.03819817 191.33862019 22.04623449 C188.43564633 22.06617615 185.53398025 22.0503815 182.6309967 22.03465271 C180.5497206 22.04142786 178.4684505 22.05033041 176.38719177 22.061203 C170.7342906 22.08401493 165.08184524 22.07515196 159.428936 22.05930758 C153.51621512 22.04665852 147.60353355 22.05838593 141.69081116 22.0662384 C131.76097092 22.07533783 121.83131655 22.06333923 111.90150452 22.03953552 C100.41733944 22.01232384 88.93361817 22.02113778 77.44946384 22.04866755 C67.59370147 22.07134913 57.73807279 22.07456331 47.88229275 22.0614742 C41.99397951 22.05367452 36.10587495 22.05265249 30.21757507 22.06915665 C24.68196945 22.08358814 19.14693664 22.07360331 13.61139297 22.04468536 C11.5784513 22.03806756 9.54546151 22.03998402 7.51253891 22.05099869 C4.73976678 22.06463816 1.9688366 22.04755803 -0.80381775 22.02259827 C-1.61072398 22.03375188 -2.41763021 22.04490548 -3.24898815 22.05639708 C-7.27357379 21.98599338 -9.18615623 21.57018963 -12.39578247 19.06284142 C-14.95040483 15.6863493 -15.41978455 13.60982504 -15.41978455 9.38768005 C-12.42225244 1.18390796 -8.26491986 -0.06193297 0 0 Z " fill="#EF3E49" transform="translate(423.41978454589844,517.6123199462891)"/>
<path d="M0 0 C3.60341723 3.07791888 4.8060974 5.04664555 5.75 9.6875 C5.41850439 14.5678521 2.75127718 17.95759133 0.06640625 21.90625 C-20.47016476 52.65287427 -24.33943577 91.74717883 -17.26171875 127.44140625 C-13.96688427 142.556884 -8.59459588 156.90671561 -1.6328125 170.7109375 C0.98267978 175.9960357 1.72919171 179.23602762 0 185 C-2.44128902 187.85809446 -4.2503537 189.57563251 -7.96484375 190.4765625 C-11.9771713 190.76920827 -13.52614695 190.32149872 -16.9765625 187.98046875 C-20.58654236 184.78066237 -22.41583257 181.03535338 -24.375 176.6875 C-24.94190552 175.45483398 -24.94190552 175.45483398 -25.52026367 174.19726562 C-44.57469139 131.52043189 -49.8505267 81.53925418 -33.24853516 37.15356445 C-28.08078234 24.0673992 -21.83146165 9.4346442 -11 0 C-7.12836566 -1.29054478 -3.85703622 -1.20063384 0 0 Z " fill="#F26450" transform="translate(366,410)"/>
<path d="M0 0 C16.79570173 11.41041324 24.62831421 39.34018781 29 58 C29.17789063 58.72993164 29.35578125 59.45986328 29.5390625 60.21191406 C34.75968751 82.57566288 34.04053109 109.68888825 29 132 C28.82839355 132.77617676 28.65678711 133.55235352 28.47998047 134.35205078 C24.91327466 150.03089427 19.74326777 165.22445813 12.3125 179.5 C11.75997559 180.56855225 11.75997559 180.56855225 11.19628906 181.65869141 C9.26573142 185.21951707 7.63037897 188.06284126 4 190 C-1.30685731 190.50541498 -4.73114172 190.51553035 -9 187 C-11.58529009 183.55294654 -11.28957419 180.18605042 -11 176 C-9.9066492 173.31064101 -8.77825187 170.8674314 -7.4375 168.3125 C11.09872062 130.8714878 15.61369111 87.99084757 2.68701172 48.02978516 C-0.63816206 38.20551551 -5.16549475 29.69170172 -10.94921875 21.15625 C-16 13.38285714 -16 13.38285714 -16 8.4375 C-14.80815947 4.34054818 -13.28920817 2.66269233 -10 0 C-6.18323682 -1.27225439 -3.91280349 -0.87700768 0 0 Z " fill="#ED2D47" transform="translate(686,410)"/>
<path d="M0 0 C12.16329942 8.489983 16.14642221 36.53884044 18.59326172 50.08862305 C23.47694502 80.95787499 17.6572225 111.75418776 7.890625 141.05078125 C7.66979248 141.73962402 7.44895996 142.4284668 7.22143555 143.13818359 C5.67009794 147.53819909 3.89227471 149.87091801 -0.046875 152.36328125 C-4.07325405 153.46138463 -6.32032595 153.6008069 -10.296875 152.30078125 C-13.67235112 149.9226049 -14.7656351 148.282368 -16.046875 144.36328125 C-15.59781699 138.29325575 -13.67355693 132.85158406 -11.734375 127.11328125 C0.54562949 89.73566388 1.19915517 50.26294619 -16.29711914 14.40161133 C-17.66251736 10.68955997 -17.07544762 8.1561428 -16.046875 4.36328125 C-11.81458784 -0.96120904 -6.43130308 -2.0005771 0 0 Z " fill="#EE3047" transform="translate(736.046875,428.63671875)"/>
<path d="M0 0 C2.87029869 1.79393668 4.49131638 2.98263276 6 6 C6.71181447 12.40550161 5.53435784 17.13948217 2.8125 22.875 C-12.25957514 57.12867268 -10.76242366 95.58742675 2.3125 130.25 C2.57901367 130.90427979 2.84552734 131.55855957 3.12011719 132.23266602 C5.01989058 137.11004086 5.74319177 141.77323936 5 147 C3.6914697 149.92698579 2.59218656 150.83984453 0 153 C-3.90078832 154.39201519 -6.89071226 154.42858845 -10.75 152.9375 C-16.34713957 148.11774092 -18.31131583 141.98533289 -20.4375 135.125 C-20.7360791 134.17407471 -21.0346582 133.22314941 -21.34228516 132.2434082 C-33.7585053 91.42017984 -35.29723091 44.73476789 -15 6 C-10.61554303 -0.00987353 -7.29277974 -0.94466059 0 0 Z " fill="#F36950" transform="translate(316,428)"/>
</svg>
